<svg width="20" height="20" viewBox="0 0 20 20" fill="none" xmlns="http://www.w3.org/2000/svg">
<path d="M16.4286 13.8736C16.0772 14.6521 15.9093 14.9993 15.4565 15.6879C14.8258 16.6486 13.9358 17.845 12.8329 17.855C11.8529 17.8643 11.6015 17.2179 10.2715 17.225C8.94219 17.2321 8.66433 17.8664 7.68433 17.8571C6.58147 17.8471 5.73933 16.7671 5.10719 15.8057C3.3429 13.1186 3.15861 9.96571 4.24719 8.29C5.02076 7.09857 6.24147 6.40214 7.38933 6.40214C8.5579 6.40214 9.29219 7.04286 10.2586 7.04286C11.1958 7.04286 11.7672 6.40143 13.1179 6.40143C14.1393 6.40143 15.2208 6.95714 15.9922 7.91786C13.4665 9.30214 13.8765 12.9086 16.4286 13.8736Z" stroke="#171A1F" stroke-width="1.71429" stroke-miterlimit="10" stroke-linecap="square"/>
<path d="M12.2142 3.89285C12.6785 3.29714 13.0306 2.45642 12.9028 1.59714C12.1442 1.64928 11.2585 2.13142 10.7406 2.75999C10.2706 3.33071 9.88278 4.17642 10.0335 4.99928C10.8606 5.02499 11.7171 4.53071 12.2142 3.89285Z" fill="#171A1F"/>
</svg>
