<svg width="56" height="56" viewBox="0 0 56 56" fill="none" xmlns="http://www.w3.org/2000/svg">
<path d="M13.5172 18.3448C16.1834 18.3448 18.3448 16.1835 18.3448 13.5173C18.3448 10.8511 16.1834 8.68967 13.5172 8.68967C10.851 8.68967 8.68964 10.8511 8.68964 13.5173C8.68964 16.1835 10.851 18.3448 13.5172 18.3448Z" stroke="white" stroke-width="2.31724" stroke-miterlimit="10" stroke-linecap="square"/>
<path d="M28 18.3448C30.6662 18.3448 32.8276 16.1835 32.8276 13.5173C32.8276 10.8511 30.6662 8.68967 28 8.68967C25.3338 8.68967 23.1724 10.8511 23.1724 13.5173C23.1724 16.1835 25.3338 18.3448 28 18.3448Z" stroke="white" stroke-width="2.31724" stroke-miterlimit="10" stroke-linecap="square"/>
<path d="M42.4827 18.3448C45.1489 18.3448 47.3103 16.1835 47.3103 13.5173C47.3103 10.8511 45.1489 8.68967 42.4827 8.68967C39.8165 8.68967 37.6552 10.8511 37.6552 13.5173C37.6552 16.1835 39.8165 18.3448 42.4827 18.3448Z" stroke="white" stroke-width="2.31724" stroke-miterlimit="10" stroke-linecap="square"/>
<path d="M13.5172 32.8276C16.1834 32.8276 18.3448 30.6662 18.3448 28C18.3448 25.3338 16.1834 23.1724 13.5172 23.1724C10.851 23.1724 8.68964 25.3338 8.68964 28C8.68964 30.6662 10.851 32.8276 13.5172 32.8276Z" stroke="white" stroke-width="2.31724" stroke-miterlimit="10" stroke-linecap="square"/>
<path d="M28 32.8276C30.6662 32.8276 32.8276 30.6662 32.8276 28C32.8276 25.3338 30.6662 23.1724 28 23.1724C25.3338 23.1724 23.1724 25.3338 23.1724 28C23.1724 30.6662 25.3338 32.8276 28 32.8276Z" stroke="white" stroke-width="2.31724" stroke-miterlimit="10" stroke-linecap="square"/>
<path d="M42.4827 32.8276C45.1489 32.8276 47.3103 30.6662 47.3103 28C47.3103 25.3338 45.1489 23.1724 42.4827 23.1724C39.8165 23.1724 37.6552 25.3338 37.6552 28C37.6552 30.6662 39.8165 32.8276 42.4827 32.8276Z" stroke="white" stroke-width="2.31724" stroke-miterlimit="10" stroke-linecap="square"/>
<path d="M13.5172 47.3103C16.1834 47.3103 18.3448 45.149 18.3448 42.4828C18.3448 39.8166 16.1834 37.6552 13.5172 37.6552C10.851 37.6552 8.68964 39.8166 8.68964 42.4828C8.68964 45.149 10.851 47.3103 13.5172 47.3103Z" stroke="white" stroke-width="2.31724" stroke-miterlimit="10" stroke-linecap="square"/>
<path d="M28 47.3103C30.6662 47.3103 32.8276 45.149 32.8276 42.4828C32.8276 39.8166 30.6662 37.6552 28 37.6552C25.3338 37.6552 23.1724 39.8166 23.1724 42.4828C23.1724 45.149 25.3338 47.3103 28 47.3103Z" stroke="white" stroke-width="2.31724" stroke-miterlimit="10" stroke-linecap="square"/>
<path d="M42.4827 47.3103C45.1489 47.3103 47.3103 45.149 47.3103 42.4828C47.3103 39.8166 45.1489 37.6552 42.4827 37.6552C39.8165 37.6552 37.6552 39.8166 37.6552 42.4828C37.6552 45.149 39.8165 47.3103 42.4827 47.3103Z" stroke="white" stroke-width="2.31724" stroke-miterlimit="10" stroke-linecap="square"/>
</svg>
