<svg width="56" height="56" viewBox="0 0 56 56" fill="none" xmlns="http://www.w3.org/2000/svg">
<path d="M49.2414 32.8276C49.2414 37.0932 45.7829 40.5517 41.5172 40.5517C38.5859 40.5517 36.0669 38.8997 34.7586 36.4946C33.4503 38.8997 30.9313 40.5517 28 40.5517C25.0687 40.5517 22.5496 38.8997 21.2414 36.4946C19.9331 38.8997 17.4141 40.5517 14.4827 40.5517C10.2171 40.5517 6.75861 37.0932 6.75861 32.8276" stroke="white" stroke-width="2.31724" stroke-miterlimit="10"/>
<path d="M28 19.3103C30.1328 19.3103 31.8621 17.5811 31.8621 15.4483C31.8621 13.3154 28 7.72414 28 7.72414C28 7.72414 24.1379 13.3154 24.1379 15.4483C24.1379 17.5811 25.8672 19.3103 28 19.3103Z" stroke="white" stroke-width="2.31724" stroke-miterlimit="10" stroke-linecap="square"/>
<path d="M28 19.3103V25.1035" stroke="white" stroke-width="2.31724" stroke-miterlimit="10" stroke-linecap="square"/>
<path d="M49.2414 32.8276L6.75861 32.8276L6.75861 48.2759L49.2414 48.2759L49.2414 32.8276Z" stroke="white" stroke-width="2.31724" stroke-miterlimit="10" stroke-linecap="square"/>
<path d="M43.4482 32.8276V25.1034L12.5517 25.1034L12.5517 32.8276" stroke="white" stroke-width="2.31724" stroke-miterlimit="10" stroke-linecap="square"/>
</svg>
