<svg width="24" height="25" viewBox="0 0 24 25" fill="none" xmlns="http://www.w3.org/2000/svg">
<path d="M7.5 11.8434L16.5 11.8434C16.6989 11.8434 16.8897 11.7644 17.0303 11.6237C17.171 11.4831 17.25 11.2923 17.25 11.0934V6.59338C17.25 6.39447 17.171 6.20371 17.0303 6.06305C16.8897 5.9224 16.6989 5.84338 16.5 5.84338L7.5 5.84338C7.30109 5.84338 7.11032 5.9224 6.96967 6.06305C6.82902 6.20371 6.75 6.39447 6.75 6.59338L6.75 11.0934C6.75 11.2923 6.82902 11.4831 6.96967 11.6237C7.11032 11.7644 7.30109 11.8434 7.5 11.8434ZM8.25 7.34338L15.75 7.34338V10.3434L8.25 10.3434L8.25 7.34338ZM18.75 2.84338L5.25 2.84338C4.85218 2.84338 4.47064 3.00142 4.18934 3.28272C3.90804 3.56403 3.75 3.94556 3.75 4.34338L3.75 20.8434C3.75 21.2412 3.90804 21.6227 4.18934 21.904C4.47064 22.1853 4.85218 22.3434 5.25 22.3434L18.75 22.3434C19.1478 22.3434 19.5294 22.1853 19.8107 21.904C20.092 21.6227 20.25 21.2412 20.25 20.8434L20.25 4.34338C20.25 3.94556 20.092 3.56403 19.8107 3.28272C19.5294 3.00142 19.1478 2.84338 18.75 2.84338ZM18.75 20.8434L5.25 20.8434L5.25 4.34338L18.75 4.34338L18.75 20.8434ZM9.375 14.4684C9.375 14.6909 9.30902 14.9084 9.1854 15.0934C9.06179 15.2784 8.88609 15.4226 8.68052 15.5077C8.47495 15.5929 8.24875 15.6152 8.03052 15.5718C7.81229 15.5284 7.61184 15.4212 7.4545 15.2639C7.29717 15.1065 7.19002 14.9061 7.14662 14.6879C7.10321 14.4696 7.12549 14.2434 7.21064 14.0379C7.29578 13.8323 7.43998 13.6566 7.62498 13.533C7.80999 13.4094 8.0275 13.3434 8.25 13.3434C8.54837 13.3434 8.83452 13.4619 9.0455 13.6729C9.25647 13.8839 9.375 14.17 9.375 14.4684ZM13.125 14.4684C13.125 14.6909 13.059 14.9084 12.9354 15.0934C12.8118 15.2784 12.6361 15.4226 12.4305 15.5077C12.225 15.5929 11.9988 15.6152 11.7805 15.5718C11.5623 15.5284 11.3618 15.4212 11.2045 15.2639C11.0472 15.1065 10.94 14.9061 10.8966 14.6879C10.8532 14.4696 10.8755 14.2434 10.9606 14.0379C11.0458 13.8323 11.19 13.6566 11.375 13.533C11.56 13.4094 11.7775 13.3434 12 13.3434C12.2984 13.3434 12.5845 13.4619 12.7955 13.6729C13.0065 13.8839 13.125 14.17 13.125 14.4684ZM16.875 14.4684C16.875 14.6909 16.809 14.9084 16.6854 15.0934C16.5618 15.2784 16.3861 15.4226 16.1805 15.5077C15.975 15.5929 15.7488 15.6152 15.5305 15.5718C15.3123 15.5284 15.1118 15.4212 14.9545 15.2639C14.7972 15.1065 14.69 14.9061 14.6466 14.6879C14.6032 14.4696 14.6255 14.2434 14.7106 14.0379C14.7958 13.8323 14.94 13.6566 15.125 13.533C15.31 13.4094 15.5275 13.3434 15.75 13.3434C16.0484 13.3434 16.3345 13.4619 16.5455 13.6729C16.7565 13.8839 16.875 14.17 16.875 14.4684ZM9.375 18.2184C9.375 18.4409 9.30902 18.6584 9.1854 18.8434C9.06179 19.0284 8.88609 19.1726 8.68052 19.2577C8.47495 19.3429 8.24875 19.3652 8.03052 19.3218C7.81229 19.2784 7.61184 19.1712 7.4545 19.0139C7.29717 18.8565 7.19002 18.6561 7.14662 18.4379C7.10321 18.2196 7.12549 17.9934 7.21064 17.7879C7.29578 17.5823 7.43998 17.4066 7.62498 17.283C7.80999 17.1594 8.0275 17.0934 8.25 17.0934C8.54837 17.0934 8.83452 17.2119 9.0455 17.4229C9.25647 17.6339 9.375 17.92 9.375 18.2184ZM13.125 18.2184C13.125 18.4409 13.059 18.6584 12.9354 18.8434C12.8118 19.0284 12.6361 19.1726 12.4305 19.2577C12.225 19.3429 11.9988 19.3652 11.7805 19.3218C11.5623 19.2784 11.3618 19.1712 11.2045 19.0139C11.0472 18.8565 10.94 18.6561 10.8966 18.4379C10.8532 18.2196 10.8755 17.9934 10.9606 17.7879C11.0458 17.5823 11.19 17.4066 11.375 17.283C11.56 17.1594 11.7775 17.0934 12 17.0934C12.2984 17.0934 12.5845 17.2119 12.7955 17.4229C13.0065 17.6339 13.125 17.92 13.125 18.2184ZM16.875 18.2184C16.875 18.4409 16.809 18.6584 16.6854 18.8434C16.5618 19.0284 16.3861 19.1726 16.1805 19.2577C15.975 19.3429 15.7488 19.3652 15.5305 19.3218C15.3123 19.2784 15.1118 19.1712 14.9545 19.0139C14.7972 18.8565 14.69 18.6561 14.6466 18.4379C14.6032 18.2196 14.6255 17.9934 14.7106 17.7879C14.7958 17.5823 14.94 17.4066 15.125 17.283C15.31 17.1594 15.5275 17.0934 15.75 17.0934C16.0484 17.0934 16.3345 17.2119 16.5455 17.4229C16.7565 17.6339 16.875 17.92 16.875 18.2184Z" fill="#7367F0"/>
</svg>
