<svg width="24" height="25" viewBox="0 0 24 25" fill="none" xmlns="http://www.w3.org/2000/svg">
<path d="M6.85718 3.16479V4.87908" stroke="#7367F0" stroke-width="2.05714" stroke-miterlimit="10" stroke-linecap="square"/>
<path d="M17.1428 3.16479V4.87908" stroke="#7367F0" stroke-width="2.05714" stroke-miterlimit="10" stroke-linecap="square"/>
<path d="M7.71429 12.5934H6V13.4505H7.71429V12.5934Z" stroke="#7367F0" stroke-width="2.05714" stroke-miterlimit="10" stroke-linecap="square"/>
<path d="M12.8571 12.5934H11.1428V13.4505H12.8571V12.5934Z" stroke="#7367F0" stroke-width="2.05714" stroke-miterlimit="10" stroke-linecap="square"/>
<path d="M7.71429 16.8792H6V17.7363H7.71429V16.8792Z" stroke="#7367F0" stroke-width="2.05714" stroke-miterlimit="10" stroke-linecap="square"/>
<path d="M12.8571 16.8792H11.1428V17.7363H12.8571V16.8792Z" stroke="#7367F0" stroke-width="2.05714" stroke-miterlimit="10" stroke-linecap="square"/>
<path d="M17.9999 12.5934H16.2856V13.4505H17.9999V12.5934Z" stroke="#7367F0" stroke-width="2.05714" stroke-miterlimit="10" stroke-linecap="square"/>
<path d="M7.71429 12.5934H6V13.4505H7.71429V12.5934Z" fill="#7367F0"/>
<path d="M12.8571 12.5934H11.1428V13.4505H12.8571V12.5934Z" fill="#7367F0"/>
<path d="M7.71429 16.8792H6V17.7363H7.71429V16.8792Z" fill="#7367F0"/>
<path d="M12.8571 16.8792H11.1428V17.7363H12.8571V16.8792Z" fill="#7367F0"/>
<path d="M17.9999 12.5934H16.2856V13.4505H17.9999V12.5934Z" fill="#7367F0"/>
<path d="M2.57153 9.16479L21.4287 9.16479" stroke="#7367F0" stroke-width="2.05714" stroke-miterlimit="10" stroke-linecap="square"/>
<path d="M19.7144 5.73621L4.28582 5.73621C3.33905 5.73621 2.57153 6.50372 2.57153 7.45049L2.57153 19.4505C2.57153 20.3973 3.33905 21.1648 4.28582 21.1648L19.7144 21.1648C20.6612 21.1648 21.4287 20.3973 21.4287 19.4505L21.4287 7.45049C21.4287 6.50372 20.6612 5.73621 19.7144 5.73621Z" stroke="#7367F0" stroke-width="2.05714" stroke-miterlimit="10" stroke-linecap="square"/>
</svg>
