<svg width="24" height="25" viewBox="0 0 24 25" fill="none" xmlns="http://www.w3.org/2000/svg">
<path d="M19.5 4.76001L4.5 4.76001C3.90326 4.76001 3.33097 4.99706 2.90901 5.41902C2.48705 5.84098 2.25 6.41327 2.25 7.01001L2.25 17.51C2.25 18.1067 2.48705 18.679 2.90901 19.101C3.33097 19.523 3.90326 19.76 4.5 19.76L19.5 19.76C20.0967 19.76 20.669 19.523 21.091 19.101C21.5129 18.679 21.75 18.1067 21.75 17.51L21.75 7.01001C21.75 6.41327 21.5129 5.84098 21.091 5.41902C20.669 4.99706 20.0967 4.76001 19.5 4.76001ZM3.75 9.26001L20.25 9.26001V10.76H15.6741C15.3283 10.7602 14.9932 10.8798 14.7255 11.0987C14.4578 11.3175 14.2739 11.6221 14.205 11.9609C14.0999 12.4676 13.8235 12.9225 13.4222 13.2491C13.0209 13.5757 12.5193 13.7541 12.0019 13.7541C11.4845 13.7541 10.9829 13.5757 10.5816 13.2491C10.1803 12.9225 9.90381 12.4676 9.79875 11.9609C9.72968 11.6215 9.54526 11.3164 9.27679 11.0975C9.00831 10.8786 8.67235 10.7593 8.32594 10.76L3.75 10.76L3.75 9.26001ZM4.5 6.26001L19.5 6.26001C19.6989 6.26001 19.8897 6.33903 20.0303 6.47968C20.171 6.62033 20.25 6.8111 20.25 7.01001V7.76001L3.75 7.76001L3.75 7.01001C3.75 6.8111 3.82902 6.62033 3.96967 6.47968C4.11032 6.33903 4.30109 6.26001 4.5 6.26001ZM19.5 18.26L4.5 18.26C4.30109 18.26 4.11032 18.181 3.96967 18.0403C3.82902 17.8997 3.75 17.7089 3.75 17.51L3.75 12.26L8.325 12.26C8.49759 13.1072 8.95763 13.8688 9.62725 14.4157C10.2969 14.9627 11.1349 15.2615 11.9995 15.2615C12.8641 15.2615 13.7022 14.9627 14.3718 14.4157C15.0414 13.8688 15.5015 13.1072 15.6741 12.26H20.25V17.51C20.25 17.7089 20.171 17.8997 20.0303 18.0403C19.8897 18.181 19.6989 18.26 19.5 18.26Z" fill="#7367F0"/>
</svg>
