<svg width="20" height="20" viewBox="0 0 20 20" fill="none" xmlns="http://www.w3.org/2000/svg">
<path d="M9.99992 5.41667C11.5322 5.41157 13.0348 5.83899 14.335 6.64977C15.6352 7.46056 16.6802 8.6218 17.3499 10C15.9749 12.8083 13.1666 14.5833 9.99992 14.5833C6.83325 14.5833 4.02492 12.8083 2.64992 10C3.3196 8.6218 4.36461 7.46056 5.66482 6.64977C6.96502 5.83899 8.46764 5.41157 9.99992 5.41667ZM9.99992 3.75C5.83325 3.75 2.27492 6.34167 0.833252 10C2.27492 13.6583 5.83325 16.25 9.99992 16.25C14.1666 16.25 17.7249 13.6583 19.1666 10C17.7249 6.34167 14.1666 3.75 9.99992 3.75ZM9.99992 7.91667C10.5525 7.91667 11.0824 8.13616 11.4731 8.52686C11.8638 8.91756 12.0833 9.44747 12.0833 10C12.0833 10.5525 11.8638 11.0824 11.4731 11.4731C11.0824 11.8638 10.5525 12.0833 9.99992 12.0833C9.44738 12.0833 8.91748 11.8638 8.52678 11.4731C8.13608 11.0824 7.91658 10.5525 7.91658 10C7.91658 9.44747 8.13608 8.91756 8.52678 8.52686C8.91748 8.13616 9.44738 7.91667 9.99992 7.91667ZM9.99992 6.25C7.93325 6.25 6.24992 7.93333 6.24992 10C6.24992 12.0667 7.93325 13.75 9.99992 13.75C12.0666 13.75 13.7499 12.0667 13.7499 10C13.7499 7.93333 12.0666 6.25 9.99992 6.25Z" fill="#171A1F"/>
</svg>
