<svg width="24" height="24" viewBox="0 0 24 24" fill="none" xmlns="http://www.w3.org/2000/svg">
<path d="M7.28568 6.85714C8.46915 6.85714 9.42854 5.89775 9.42854 4.71428C9.42854 3.53082 8.46915 2.57143 7.28568 2.57143C6.10221 2.57143 5.14282 3.53082 5.14282 4.71428C5.14282 5.89775 6.10221 6.85714 7.28568 6.85714Z" stroke="#171A1F" stroke-width="2.05714" stroke-miterlimit="10" stroke-linecap="square"/>
<path d="M16.7144 6.85714C17.8979 6.85714 18.8572 5.89775 18.8572 4.71428C18.8572 3.53082 17.8979 2.57143 16.7144 2.57143C15.5309 2.57143 14.5715 3.53082 14.5715 4.71428C14.5715 5.89775 15.5309 6.85714 16.7144 6.85714Z" stroke="#171A1F" stroke-width="2.05714" stroke-miterlimit="10" stroke-linecap="square"/>
<path d="M11.9999 16.2857C12.9467 16.2857 13.7142 15.5182 13.7142 14.5714C13.7142 13.6247 12.9467 12.8571 11.9999 12.8571C11.0532 12.8571 10.2856 13.6247 10.2856 14.5714C10.2856 15.5182 11.0532 16.2857 11.9999 16.2857Z" stroke="#171A1F" stroke-width="2.05714" stroke-miterlimit="10" stroke-linecap="square"/>
<path d="M9.42847 21.4286V18.8571H14.5713V21.4286" stroke="#171A1F" stroke-width="2.05714" stroke-miterlimit="10" stroke-linecap="square"/>
<path d="M6 16.2857L9.42857 18.8571" stroke="#171A1F" stroke-width="2.05714" stroke-miterlimit="10" stroke-linecap="square"/>
<path d="M18.0001 16.2857L14.5715 18.8571" stroke="#171A1F" stroke-width="2.05714" stroke-miterlimit="10" stroke-linecap="square"/>
<path d="M2.57153 18.8571L2.57153 14.1428C2.57153 12.8925 3.06822 11.6934 3.95232 10.8093C4.83642 9.92525 6.03551 9.42856 7.28582 9.42856C8.25642 9.42709 9.20361 9.72655 9.99696 10.2857" stroke="#171A1F" stroke-width="2.05714" stroke-miterlimit="10" stroke-linecap="square"/>
<path d="M21.4286 18.8571L21.4286 14.1428C21.4286 12.8925 20.9319 11.6934 20.0478 10.8093C19.1637 9.92525 17.9646 9.42856 16.7143 9.42856C15.7437 9.42709 14.7965 9.72655 14.0032 10.2857" stroke="#171A1F" stroke-width="2.05714" stroke-miterlimit="10" stroke-linecap="square"/>
</svg>
