<svg width="28" height="28" viewBox="0 0 28 28" fill="none" xmlns="http://www.w3.org/2000/svg">
<path d="M25.566 15.469C25.568 15.463 25.569 15.457 25.571 15.451C25.846 14.513 26 13.525 26 12.5C26 6.71 21.29 2 15.5 2C9.71 2 5 6.71 5 12.5C5 17.467 8.471 21.63 13.112 22.716C13.118 22.717 13.123 22.719 13.129 22.72C13.893 22.897 14.684 23 15.5 23C20.258 23 24.281 19.816 25.566 15.469ZM23.216 16.044C19.564 15.725 16.239 17.783 14.782 20.964C14.086 20.905 13.415 20.762 12.776 20.545C14.531 16.244 19.044 13.473 23.845 14.095C23.715 14.777 23.5 15.429 23.216 16.044ZM22.5 12C17.449 12 12.916 15.061 10.983 19.688C10.395 19.317 9.856 18.88 9.377 18.381C10.389 16.216 11.899 14.37 13.744 12.967C13.178 12.184 12.694 11.35 12.297 10.475C10.797 11.76 8.985 12.591 7.018 12.876C7.013 12.75 7 12.627 7 12.5C7 11.923 7.059 11.36 7.169 10.815C8.837 10.483 10.352 9.667 11.554 8.437C11.264 7.413 11.089 6.357 11.028 5.285C11.641 4.903 12.302 4.591 13.006 4.375C13.005 4.417 13 4.458 13 4.5C13 7.156 13.859 9.739 15.419 11.866C16.014 11.532 16.631 11.237 17.269 10.989C15.82 9.151 15 6.863 15 4.5C15 4.345 15.012 4.184 15.02 4.024C15.18 4.015 15.338 4 15.5 4C16.018 4 16.523 4.054 17.016 4.143C17.01 4.263 17 4.385 17 4.5C17 6.714 17.839 8.77 19.358 10.353C20.376 10.126 21.427 10 22.5 10C22.875 10 23.254 10.021 23.638 10.054C23.835 10.708 23.948 11.397 23.981 12.107C23.474 12.043 22.979 12 22.5 12Z" fill="#15ABFF"/>
<path d="M8 26H5C3.346 26 2 24.654 2 23C2 21.346 3.346 20 5 20H6C6.553 20 7 20.448 7 21C7 21.552 6.553 22 6 22H5C4.448 22 4 22.449 4 23C4 23.551 4.448 24 5 24H8C8.553 24 9 24.448 9 25C9 25.552 8.553 26 8 26Z" fill="#15ABFF"/>
</svg>
