<svg width="24" height="24" viewBox="0 0 24 24" fill="none" xmlns="http://www.w3.org/2000/svg">
<path d="M7.71429 15.4286L7.71429 20.5714" stroke="#565D6D" stroke-width="2.05714" stroke-miterlimit="10"/>
<path d="M5.14288 18L7.71431 20.5714L10.2857 18" stroke="#565D6D" stroke-width="2.05714" stroke-miterlimit="10" stroke-linecap="square"/>
<path d="M7.71427 15.4286C10.5546 15.4286 12.8571 13.126 12.8571 10.2857C12.8571 7.44539 10.5546 5.14285 7.71427 5.14285C4.87395 5.14285 2.57141 7.44539 2.57141 10.2857C2.57141 13.126 4.87395 15.4286 7.71427 15.4286Z" stroke="#565D6D" stroke-width="2.05714" stroke-miterlimit="10" stroke-linecap="square"/>
<path d="M17.3511 6.64887L21.4286 2.57144" stroke="#565D6D" stroke-width="2.05714" stroke-miterlimit="10"/>
<path d="M13.7143 15.4286C16.5546 15.4286 18.8571 13.126 18.8571 10.2857C18.8571 7.44539 16.5546 5.14285 13.7143 5.14285C10.8739 5.14285 8.57141 7.44539 8.57141 10.2857C8.57141 13.126 10.8739 15.4286 13.7143 15.4286Z" stroke="#565D6D" stroke-width="2.05714" stroke-miterlimit="10" stroke-linecap="square"/>
<path d="M18 2.57144L21.4286 2.57144V6.00001" stroke="#565D6D" stroke-width="2.05714" stroke-miterlimit="10" stroke-linecap="square"/>
</svg>
