<svg width="56" height="56" viewBox="0 0 56 56" fill="none" xmlns="http://www.w3.org/2000/svg">
<path d="M18.3448 35.7241L18.3448 47.3103" stroke="white" stroke-width="2.31724" stroke-miterlimit="10"/>
<path d="M12.5517 41.5172L18.3448 47.3103L24.1379 41.5172" stroke="white" stroke-width="2.31724" stroke-miterlimit="10" stroke-linecap="square"/>
<path d="M18.3448 35.7241C24.7437 35.7241 29.931 30.5368 29.931 24.1379C29.931 17.739 24.7437 12.5517 18.3448 12.5517C11.9459 12.5517 6.75861 17.739 6.75861 24.1379C6.75861 30.5368 11.9459 35.7241 18.3448 35.7241Z" stroke="white" stroke-width="2.31724" stroke-miterlimit="10" stroke-linecap="square"/>
<path d="M40.0545 15.9455L49.2414 6.75861" stroke="white" stroke-width="2.31724" stroke-miterlimit="10"/>
<path d="M31.8621 35.7241C38.261 35.7241 43.4483 30.5368 43.4483 24.1379C43.4483 17.739 38.261 12.5517 31.8621 12.5517C25.4632 12.5517 20.2759 17.739 20.2759 24.1379C20.2759 30.5368 25.4632 35.7241 31.8621 35.7241Z" stroke="white" stroke-width="2.31724" stroke-miterlimit="10" stroke-linecap="square"/>
<path d="M41.5172 6.75861L49.2413 6.75861V14.4827" stroke="white" stroke-width="2.31724" stroke-miterlimit="10" stroke-linecap="square"/>
</svg>
