<svg width="20" height="20" viewBox="0 0 20 20" fill="none" xmlns="http://www.w3.org/2000/svg">
<path d="M17.1916 8.6365L10.0326 8.6365V11.7045L14.0901 11.7045C13.4401 13.75 11.8401 14.432 10.0001 14.432C9.28718 14.4329 8.5846 14.2619 7.95192 13.9334C7.31924 13.6049 6.77514 13.1286 6.36578 12.545C5.95642 11.9614 5.69389 11.2876 5.60045 10.5809C5.50702 9.87417 5.58544 9.15533 5.82906 8.48537C6.07269 7.81542 6.47432 7.21412 6.9999 6.73249C7.52547 6.25086 8.15947 5.90311 8.84809 5.71876C9.53672 5.53441 10.2597 5.51889 10.9556 5.67352C11.6515 5.82815 12.2998 6.14837 12.8456 6.607L15.0751 4.4835C14.1773 3.65654 13.0912 3.06121 11.9111 2.74919C10.731 2.43716 9.49266 2.41787 8.30345 2.69299C7.11424 2.96811 6.01015 3.52933 5.08702 4.32792C4.16389 5.12651 3.44963 6.13834 3.00623 7.27558C2.56283 8.41282 2.4037 9.64109 2.54265 10.8538C2.6816 12.0665 3.11444 13.2269 3.80358 14.2344C4.49272 15.2418 5.41734 16.0659 6.49718 16.635C7.57702 17.2041 8.77944 17.501 10.0001 17.5C14.1356 17.5 17.8736 14.7725 17.1916 8.6365Z" fill="#DB4437"/>
</svg>
