<svg width="390" height="324" viewBox="0 0 390 324" fill="none" xmlns="http://www.w3.org/2000/svg">
<path fill-rule="evenodd" clip-rule="evenodd" d="M39.7125 201.87C39.7125 201.712 39.8402 201.585 39.9975 201.585H357.203C357.36 201.585 357.488 201.712 357.488 201.87C357.488 202.028 357.36 202.155 357.203 202.155H39.9975C39.8402 202.155 39.7125 202.028 39.7125 201.87Z" fill="#1A0646"/>
<path d="M284.391 260.142C279.544 258.622 270.187 245.063 264.964 236.012C262.754 232.179 258.321 229.795 253.97 230.593L246.045 232.05C240.908 232.992 237.609 238.05 238.816 243.133L244.542 267.248C244.788 268.275 245.705 269.001 246.764 269.001H308.789C309.73 269.001 310.433 268.137 310.241 267.217C310.119 266.638 309.671 266.187 309.091 266.068C302.825 264.766 290.475 262.049 284.391 260.142Z" fill="#1A0646"/>
<path d="M151.415 212.191C147.992 199.419 155.572 186.291 168.345 182.869L235.101 164.981C247.873 161.559 261.002 169.138 264.424 181.91C267.846 194.683 260.267 207.81 247.495 211.232L180.737 229.12C167.965 232.542 154.837 224.963 151.415 212.191Z" fill="#FFDE4B"/>
<path d="M237.315 165.016C250.115 161.586 263.375 168.703 267.591 181.266L290.37 249.124H240.003L220.399 198.272C215.037 184.363 222.916 168.874 237.315 165.016Z" fill="#FFDE4B"/>
<path fill-rule="evenodd" clip-rule="evenodd" d="M221.338 194.254C221.488 194.208 221.648 194.294 221.694 194.446L232.334 229.691C232.379 229.841 232.294 230.001 232.142 230.046C231.992 230.092 231.832 230.006 231.786 229.854L221.146 194.609C221.101 194.459 221.186 194.3 221.338 194.254Z" fill="#1A0646"/>
<path d="M76.1483 271.525L92.1083 249.835H64.4244C59.6255 249.835 55.0809 251.754 51.2446 254.636C43.2487 260.646 34.384 264.406 19.2477 270.045C18.4525 270.342 18.6629 271.525 19.5114 271.525H76.1483Z" fill="#1A0646"/>
<path d="M89.945 239.557L179.279 224.45C193.67 222.016 206.795 233.108 206.795 247.704C206.795 260.728 196.237 271.287 183.212 271.287H66.005L89.945 239.557Z" fill="#FFDE4B"/>
<path d="M120.06 180.54C129.751 170.849 145.464 170.849 155.155 180.54L200.061 225.446C209.753 235.138 209.753 250.851 200.061 260.541C190.371 270.233 174.658 270.233 164.966 260.541L120.06 215.636C110.369 205.944 110.368 190.232 120.06 180.54Z" fill="#FFDE4B"/>
<path fill-rule="evenodd" clip-rule="evenodd" d="M177.989 202.149C178.101 202.036 178.279 202.036 178.391 202.149L201.951 225.709C202.063 225.821 202.063 225.999 201.951 226.111C201.839 226.224 201.661 226.224 201.549 226.111L177.989 202.551C177.876 202.439 177.876 202.261 177.989 202.149Z" fill="#1A0646"/>
<path fill-rule="evenodd" clip-rule="evenodd" d="M157.737 228.241C157.761 228.397 157.654 228.543 157.498 228.566L111.328 235.596C111.172 235.621 111.027 235.513 111.003 235.359C110.98 235.203 111.086 235.057 111.242 235.034L157.412 228.004C157.568 227.979 157.713 228.087 157.737 228.241Z" fill="#1A0646"/>
<path d="M70.4589 93.6223L68.9949 95.2561C62.8726 102.089 63.2337 112.536 69.8133 118.93L105.741 153.846C113.254 161.146 125.725 158.838 130.127 149.333L135.122 138.549C138.101 132.118 136.239 124.482 130.636 120.143L93.6643 91.5131C86.573 86.0219 76.4441 86.9425 70.4589 93.6223Z" fill="url(#paint0_linear_1_258)"/>
<path d="M159.736 136.875C160.836 126.967 169.761 119.827 179.667 120.928L238.577 127.472C248.485 128.572 255.626 137.496 254.525 147.404C253.423 157.312 244.499 164.452 234.593 163.351L175.683 156.807C165.775 155.707 158.635 146.783 159.736 136.875Z" fill="url(#paint1_linear_1_258)"/>
<path d="M175.602 121.131L135.487 119.916C124.012 119.568 114.223 128.153 113.07 139.574L112.668 143.555C111.885 151.315 106.304 164.298 105.237 172.024C102.966 188.462 116.352 209.834 116.352 209.834L179.527 179.814L179.24 179.356C175.055 172.704 175.944 164.057 181.393 158.395L187.235 152.323C189.99 149.46 191.662 145.726 191.963 141.764L192.134 139.521C192.875 129.799 185.347 121.427 175.602 121.131Z" fill="url(#paint2_linear_1_258)"/>
<path d="M134.13 119.755L149.777 132.434C150.362 132.909 151.015 133.294 151.714 133.576L159.794 136.841C162.658 137.999 165.938 137.308 168.091 135.093L173.247 129.789C174.074 128.938 174.691 127.906 175.047 126.775L176.69 121.56C176.69 121.56 175.168 107.025 155.79 107.025C144.2 107.025 141.35 114.15 141.35 114.15C141.35 114.15 137.569 114.013 135.84 116.24C134.498 117.969 134.13 119.755 134.13 119.755Z" fill="#FF56A5"/>
<path d="M175.945 87.4225C175.945 98.1258 169.548 106.043 158.845 106.043C148.142 106.043 141.365 103.003 137.375 88.1825C133.839 75.0463 152.417 63.5775 163.12 63.5775C173.823 63.5775 175.945 76.7192 175.945 87.4225Z" fill="#744F3A"/>
<path d="M149.98 92.9932L171.26 108.383V121.778C171.26 122.531 171.112 123.276 170.821 123.97L169.33 127.553C167.521 131.89 161.909 133.036 158.546 129.756L151.699 123.076C150.6 122.003 149.98 120.532 149.98 118.996V92.9932Z" fill="#FFC9E2"/>
<path d="M171.092 112.94L151.807 102.395L171.092 121.965V112.94Z" fill="#1A0646"/>
<path d="M149.314 92.3299C146.688 84.3565 151.023 75.764 158.997 73.1382L159.647 72.9239C167.622 70.2981 176.213 74.6333 178.839 82.6068L182.265 93.0091C184.891 100.983 180.555 109.575 172.582 112.201L171.931 112.415C163.958 115.041 155.365 110.706 152.739 102.732L149.314 92.3299Z" fill="#FFC9E2"/>
<path d="M148.886 94.1905C151.277 96.6901 153.348 98.4772 153.348 98.4772C153.348 98.4772 149.898 89.9696 150.425 86.8304C151.354 81.2995 157.512 77.1192 162.586 76.2444C167.875 75.3326 172.473 75.1929 176.148 77.555C180.993 78.4102 183.653 71.0002 180.993 67.6752C179.874 66.2768 177.799 65.3639 176.67 65.9751C177.035 64.9593 176.976 63.9968 176.67 62.8914C175.76 59.5951 172.295 60.7586 168.854 62.8912C166.828 56.7348 153.952 65.3766 148.325 72.045C145.963 74.8445 143.377 77.2681 143.753 83.16C143.924 85.8344 146.961 92.1782 148.886 94.1905Z" fill="#744F3A"/>
<path d="M157.393 97.3288C158.453 101.282 156.435 105.257 152.888 106.208C149.34 107.158 145.606 104.724 144.547 100.771C143.487 96.8181 145.505 92.8431 149.052 91.8925C152.6 90.942 156.334 93.3759 157.393 97.3288Z" fill="#FFC9E2"/>
<path fill-rule="evenodd" clip-rule="evenodd" d="M168.431 87.4952C168.294 87.5727 168.247 87.7466 168.323 87.8836L172.256 94.8323L169.489 95.851C169.343 95.9056 169.267 96.0693 169.32 96.217C169.375 96.3648 169.539 96.4404 169.687 96.3859L172.767 95.2512C172.845 95.2223 172.908 95.1604 172.936 95.0819C172.965 95.0034 172.957 94.9162 172.917 94.8435L168.821 87.6029C168.743 87.466 168.568 87.4177 168.431 87.4952Z" fill="#FF56A5"/>
<path d="M164.291 98.4356C163.225 98.1498 162.084 98.808 162.246 99.9001C162.336 100.503 162.538 101.089 162.848 101.626C163.496 102.749 164.564 103.567 165.815 103.903C167.067 104.238 168.401 104.063 169.524 103.415C170.062 103.104 170.529 102.698 170.907 102.221C171.593 101.356 170.936 100.216 169.87 99.9303L164.291 98.4356Z" fill="#1A0646"/>
<path fill-rule="evenodd" clip-rule="evenodd" d="M147.317 98.2387H147.317L147.32 98.2383L147.332 98.2366C147.343 98.2353 147.359 98.2332 147.381 98.2307C147.424 98.2256 147.487 98.2187 147.565 98.2115C147.723 98.1973 147.942 98.1817 148.188 98.1775C148.692 98.1688 149.263 98.2083 149.655 98.3692C149.73 98.3998 149.804 98.4372 149.877 98.4809C149.855 98.4836 149.833 98.4863 149.811 98.4891C149.381 98.5434 148.822 98.6485 148.409 98.8596C148.19 98.9719 147.944 99.1484 147.762 99.2884C147.67 99.3599 147.589 99.4249 147.532 99.472C147.504 99.4957 147.481 99.5149 147.465 99.5284C147.457 99.5351 147.451 99.5404 147.447 99.5442L147.442 99.5484L147.44 99.5499L147.44 99.5501C147.44 99.5501 147.44 99.5501 147.626 99.7655L147.44 99.5501C147.321 99.6532 147.308 99.8332 147.411 99.9521C147.514 100.071 147.694 100.084 147.813 99.981L147.814 99.98L147.818 99.9766C147.821 99.9736 147.827 99.969 147.834 99.9629C147.848 99.951 147.869 99.9331 147.896 99.9113C147.949 99.8674 148.024 99.8066 148.11 99.7401C148.287 99.6038 148.498 99.4543 148.669 99.3671C148.988 99.2039 149.462 99.1077 149.882 99.0545C150.088 99.0285 150.271 99.0139 150.403 99.0057C150.434 99.0038 150.461 99.0023 150.486 99.001C150.9 99.4604 151.239 100.056 151.481 100.56C151.609 100.827 151.708 101.064 151.774 101.233C151.808 101.318 151.833 101.385 151.849 101.431C151.858 101.454 151.864 101.472 151.868 101.484L151.873 101.497L151.874 101.499L151.874 101.5C151.924 101.649 152.086 101.729 152.235 101.679C152.384 101.629 152.464 101.467 152.414 101.318L152.144 101.409C152.414 101.318 152.414 101.318 152.414 101.318L152.414 101.317L152.413 101.316L152.412 101.312L152.406 101.296C152.402 101.282 152.394 101.263 152.385 101.237C152.367 101.187 152.34 101.114 152.305 101.024C152.234 100.845 152.13 100.595 151.995 100.313C151.726 99.7541 151.326 99.0477 150.811 98.5132C150.539 98.2317 150.226 97.9871 149.872 97.842C149.365 97.6337 148.693 97.5986 148.178 97.6075C147.915 97.6121 147.681 97.6286 147.513 97.644C147.429 97.6516 147.361 97.659 147.314 97.6645C147.291 97.6674 147.272 97.6696 147.259 97.6713L147.244 97.6732L147.24 97.6738L147.238 97.674C147.238 97.674 147.238 97.674 147.277 97.9563L147.238 97.674C147.083 97.6957 146.974 97.8397 146.995 97.9955C147.017 98.1515 147.161 98.2602 147.317 98.2387Z" fill="#FF56A5"/>
<path d="M165.17 70.23C165.17 69.1807 166.021 68.33 167.07 68.33H176.234C176.69 68.33 177.13 68.1661 177.474 67.8679L181.246 64.6121C181.59 64.314 182.031 64.15 182.487 64.15H186.342C186.803 64.15 187.252 64.3193 187.599 64.6264L191.251 67.8537C191.599 68.1607 192.045 68.33 192.509 68.33H200.89C201.939 68.33 202.79 69.1807 202.79 70.23V91.51C202.79 92.5594 201.939 93.41 200.89 93.41H167.07C166.021 93.41 165.17 92.5594 165.17 91.51V70.23Z" fill="#BCECFF"/>
<path d="M193.485 80.9C193.485 86.1467 189.275 90.4 184.08 90.4C178.885 90.4 174.675 86.1467 174.675 80.9C174.675 75.6534 178.885 71.4 184.08 71.4C189.275 71.4 193.485 75.6534 193.485 80.9Z" fill="#FBC3DE"/>
<path d="M191.77 81C191.77 85.1448 188.367 88.505 184.17 88.505C179.973 88.505 176.57 85.1448 176.57 81C176.57 76.8551 179.973 73.495 184.17 73.495C188.367 73.495 191.77 76.8551 191.77 81Z" fill="#1A0646"/>
<path d="M214.849 104.305L217.42 102.373C221.061 99.6376 221.494 94.3382 218.349 91.0468L212.834 85.2761L206.185 75.3965C205.788 74.8067 205.235 74.3401 204.586 74.0496L197.47 70.8644L185.633 68.6332C184.548 68.4288 183.748 69.6249 184.353 70.5485C184.487 70.7546 184.679 70.9163 184.905 71.0136L195.171 75.4271C196.566 76.0269 197.47 77.3997 197.47 78.9181V86.8774H189.766C189.066 86.8774 188.436 87.2941 188.16 87.9369C187.729 88.9408 188.316 90.0886 189.38 90.3297L196.296 91.8948L200.991 97.2324L203.666 101.968C205.923 105.964 211.181 107.063 214.849 104.305Z" fill="#FFC9E2"/>
<path d="M220.389 79.4445L252.929 135.803C257.694 144.058 254.865 154.613 246.611 159.379C237.543 164.615 225.937 160.633 221.993 150.931L201.395 100.25L220.389 79.4445Z" fill="url(#paint3_linear_1_258)"/>
<path fill-rule="evenodd" clip-rule="evenodd" d="M210.345 124.461C210.488 124.395 210.657 124.457 210.723 124.6L215.473 134.86C215.54 135.003 215.477 135.173 215.335 135.239C215.192 135.305 215.023 135.243 214.957 135.1L210.207 124.84C210.14 124.697 210.203 124.528 210.345 124.461Z" fill="#1A0646"/>
<path d="M177.611 66.2794L167.073 50.3884C165.675 48.2805 163.206 47.1436 160.696 47.4517L146.385 49.2092L135.649 51.1746L129.632 55.2683C124.843 58.5266 124.393 65.4189 128.718 69.2725L131.108 71.4022C133.846 73.8424 137.801 74.3527 141.069 72.6879L141.298 72.5714L148.846 63.3608L159.166 61.6844L165.521 65.6617C166.336 66.1726 167.389 66.1004 168.128 65.4827L171.846 62.3749L176.19 67.362C176.359 67.5572 176.606 67.6693 176.864 67.6693C177.579 67.6693 178.006 66.8745 177.611 66.2794Z" fill="#FFC9E2"/>
<path fill-rule="evenodd" clip-rule="evenodd" d="M165.04 54.5829C165.119 54.4465 165.293 54.3995 165.43 54.478L166.748 55.2369C168.156 56.0465 169.323 57.2148 170.132 58.6225L172.167 62.1645C172.245 62.3009 172.199 62.4751 172.062 62.5536C171.926 62.632 171.751 62.5849 171.673 62.4483L169.638 58.9063C168.88 57.586 167.784 56.4903 166.465 55.7309L165.145 54.972C165.009 54.8935 164.962 54.7193 165.04 54.5829ZM162.686 56.5406C162.763 56.4038 162.938 56.3562 163.074 56.4342L165.751 57.9601C166.853 58.5883 167.812 59.4376 168.57 60.4546L170.584 63.1608C170.679 63.287 170.653 63.4656 170.527 63.5596C170.4 63.6535 170.221 63.6275 170.128 63.5011L168.112 60.7949C167.402 59.8409 166.503 59.0445 165.469 58.4553L162.792 56.9294C162.655 56.8515 162.608 56.6774 162.686 56.5406ZM159.87 59.3196C159.92 59.1704 160.082 59.0903 160.231 59.1404L162.725 59.981C164.507 60.5818 166.062 61.7157 167.179 63.229L168.492 65.0057C168.585 65.1325 168.559 65.3109 168.432 65.4043C168.306 65.4978 168.128 65.471 168.034 65.3443L166.722 63.5676C165.674 62.1481 164.215 61.0847 162.543 60.5212L160.049 59.6806C159.9 59.6304 159.819 59.4687 159.87 59.3196Z" fill="#FF56A5"/>
<path d="M146.277 73.2913L135.535 51.3463L74.1003 90.1094C64.9721 95.8688 63.6106 108.639 71.3189 116.194C77.4502 122.203 87.136 122.592 93.7302 117.095L146.277 73.2913Z" fill="url(#paint4_linear_1_258)"/>
<path fill-rule="evenodd" clip-rule="evenodd" d="M317.138 100.948C318.522 98.4368 319.293 95.6353 319.293 92.681C319.293 81.8722 308.959 73.11 296.21 73.11C283.461 73.11 273.127 81.8722 273.127 92.681C273.127 95.6353 273.898 98.4368 275.281 100.948C268.905 105.78 264.896 112.787 264.896 120.582C264.896 126.512 267.216 131.986 271.132 136.392C265.878 141.372 262.688 147.926 262.688 155.108C262.688 170.683 277.696 183.31 296.21 183.31C314.724 183.31 329.732 170.683 329.732 155.108C329.732 147.926 326.542 141.372 321.288 136.392C325.204 131.986 327.524 126.512 327.524 120.582C327.524 112.787 323.515 105.78 317.138 100.948Z" fill="#FBC3DE"/>
<path fill-rule="evenodd" clip-rule="evenodd" d="M295.932 104.383C296.248 104.383 296.502 104.638 296.502 104.953V145.829L306.172 128.801C306.327 128.527 306.675 128.431 306.949 128.587C307.222 128.742 307.319 129.09 307.163 129.364L296.502 148.138V200.808C296.502 201.123 296.248 201.378 295.932 201.378C295.617 201.378 295.362 201.123 295.362 200.808V162.5L284.054 144.875C283.883 144.61 283.961 144.258 284.225 144.088C284.489 143.918 284.842 143.995 285.013 144.26L295.362 160.389V133.812L285.386 118.468C285.213 118.204 285.289 117.851 285.551 117.68C285.815 117.508 286.168 117.583 286.341 117.847L295.362 131.72V104.953C295.362 104.638 295.617 104.383 295.932 104.383Z" fill="#1A0646"/>
<path d="M353.528 201.065C353.528 194.905 351.08 188.996 346.726 184.64C342.369 180.284 336.46 177.837 330.3 177.837C324.14 177.837 318.231 180.284 313.875 184.64C309.52 188.996 307.073 194.905 307.073 201.065H330.3H353.528Z" fill="#FF56A5"/>
<path fill-rule="evenodd" clip-rule="evenodd" d="M329.246 177.645C329.379 177.645 329.487 177.753 329.487 177.885V186.957L337.245 178.962C337.338 178.867 337.49 178.865 337.585 178.957C337.68 179.05 337.684 179.202 337.591 179.297L329.487 187.647V200.73L346.061 190.774C346.175 190.705 346.321 190.742 346.389 190.856C346.458 190.97 346.422 191.117 346.308 191.186L329.371 201.361C329.305 201.401 329.223 201.406 329.153 201.376L317.601 196.482C317.479 196.43 317.422 196.288 317.473 196.166C317.525 196.045 317.667 195.988 317.789 196.039L328.672 200.65L319.168 184.436C319.1 184.321 319.14 184.174 319.254 184.107C319.368 184.04 319.516 184.078 319.582 184.193L329.006 200.27V177.885C329.006 177.753 329.115 177.645 329.246 177.645Z" fill="#1A0646"/>
<path d="M92.4606 200.839C92.4606 196.601 90.777 192.536 87.78 189.539C84.7829 186.542 80.7183 184.859 76.4799 184.859C72.2414 184.859 68.1767 186.542 65.1797 189.539C62.1828 192.536 60.499 196.601 60.499 200.839H76.4799H92.4606Z" fill="#FF56A5"/>
<path fill-rule="evenodd" clip-rule="evenodd" d="M75.7566 184.72C75.8478 184.72 75.9219 184.794 75.9219 184.885V191.127L81.2597 185.626C81.3234 185.561 81.4279 185.559 81.4934 185.623C81.559 185.686 81.5605 185.791 81.497 185.857L75.9219 191.601V200.602L87.3243 193.753C87.4026 193.705 87.5043 193.732 87.5512 193.81C87.5983 193.888 87.5728 193.988 87.4946 194.036L75.8417 201.037C75.7963 201.064 75.7408 201.068 75.692 201.047L67.7444 197.68C67.6603 197.644 67.6211 197.547 67.6567 197.463C67.6924 197.378 67.7893 197.34 67.8735 197.376L75.3615 200.547L68.8221 189.392C68.7758 189.313 68.8024 189.212 68.881 189.166C68.9599 189.12 69.0611 189.146 69.1073 189.225L75.5913 200.287V184.885C75.5913 184.794 75.6652 184.72 75.7566 184.72Z" fill="#1A0646"/>
<path d="M86.73 58.89C86.73 70.9575 76.9475 80.74 64.88 80.74C52.8126 80.74 43.03 70.9575 43.03 58.89C43.03 46.8225 52.8126 37.04 64.88 37.04C76.9475 37.04 86.73 46.8225 86.73 58.89Z" fill="#DCE1F2"/>
<path d="M64.88 68.9832C70.4543 68.9832 74.9731 64.4643 74.9731 58.89C74.9731 53.3157 70.4543 48.7969 64.88 48.7969C59.3057 48.7969 54.7869 53.3157 54.7869 58.89C54.7869 64.4643 59.3057 68.9832 64.88 68.9832Z" fill="#1A0646"/>
<path d="M66.7267 55.2339C67.9735 55.2339 68.9837 56.2532 68.9837 57.6801C68.9837 60.3519 66.2857 61.9517 65.0998 62.6467C64.9641 62.7261 64.796 62.7261 64.6603 62.6467C63.4743 61.9517 60.7761 60.3519 60.7761 57.6801C60.7761 56.2532 61.8021 55.2339 63.0333 55.2339C63.7966 55.2339 64.4695 55.6416 64.8799 56.0493C65.2903 55.6416 65.9633 55.2339 66.7267 55.2339Z" fill="#DCE1F2"/>
<path d="M305.948 212.827C306.302 212.143 307.28 212.143 307.634 212.827L309.083 215.622C309.159 215.77 309.275 215.895 309.416 215.985L311.711 217.45C312.296 217.822 312.296 218.677 311.711 219.051L309.501 220.461C309.307 220.585 309.165 220.775 309.1 220.995L307.702 225.762C307.436 226.672 306.146 226.672 305.88 225.762L304.482 220.995C304.417 220.775 304.274 220.585 304.081 220.461L301.871 219.051C301.286 218.677 301.286 217.822 301.871 217.45L304.166 215.985C304.307 215.895 304.423 215.77 304.499 215.622L305.948 212.827Z" fill="#FF56A5"/>
<path d="M68.3258 149.688C68.6801 149.005 69.6581 149.005 70.0124 149.688L71.4614 152.483C71.5381 152.631 71.6529 152.757 71.7937 152.846L74.0891 154.311C74.6744 154.685 74.6744 155.539 74.0891 155.913L71.879 157.323C71.6854 157.447 71.5431 157.637 71.4785 157.857L70.0806 162.623C69.8137 163.534 68.5243 163.534 68.2574 162.623L66.8597 157.857C66.7951 157.637 66.6528 157.447 66.4592 157.323L64.249 155.913C63.6638 155.539 63.6638 154.685 64.249 154.311L66.5445 152.846C66.6853 152.757 66.7999 152.631 66.8768 152.483L68.3258 149.688Z" fill="#FBC3DE"/>
<path d="M229.444 48.6095C229.806 47.9035 230.813 47.9035 231.176 48.6095L233.924 53.9529C234.004 54.1055 234.119 54.2347 234.264 54.3274L238.602 57.1183C239.2 57.5029 239.2 58.3782 238.602 58.7628L234.351 61.4976C234.154 61.6249 234.007 61.8199 233.943 62.0463L231.247 71.3164C230.973 72.2545 229.647 72.2545 229.373 71.3163L226.677 62.0463C226.613 61.8199 226.466 61.6249 226.269 61.4976L222.018 58.7628C221.42 58.3782 221.42 57.5029 222.018 57.1183L226.356 54.3274C226.5 54.2347 226.616 54.1055 226.696 53.9529L229.444 48.6095Z" fill="#97F7F5"/>
<defs>
<linearGradient id="paint0_linear_1_258" x1="122.542" y1="133.923" x2="-4.13874" y2="197.406" gradientUnits="userSpaceOnUse">
<stop stop-color="#FBF7B8"/>
<stop offset="1" stop-color="#F7CDE1"/>
</linearGradient>
<linearGradient id="paint1_linear_1_258" x1="317.129" y1="61.8323" x2="206.15" y2="180.402" gradientUnits="userSpaceOnUse">
<stop stop-color="#FBF7B8"/>
<stop offset="1" stop-color="#F7CDE1"/>
</linearGradient>
<linearGradient id="paint2_linear_1_258" x1="112.552" y1="105.429" x2="213.955" y2="115.552" gradientUnits="userSpaceOnUse">
<stop stop-color="#FBF7B8"/>
<stop offset="1" stop-color="#F7CDE1"/>
</linearGradient>
<linearGradient id="paint3_linear_1_258" x1="378.285" y1="95.7845" x2="203.211" y2="156.24" gradientUnits="userSpaceOnUse">
<stop stop-color="#FBF7B8"/>
<stop offset="1" stop-color="#F7CDE1"/>
</linearGradient>
<linearGradient id="paint4_linear_1_258" x1="107.707" y1="126.776" x2="-32.7193" y2="118.981" gradientUnits="userSpaceOnUse">
<stop stop-color="#FBF7B8"/>
<stop offset="1" stop-color="#F7CDE1"/>
</linearGradient>
</defs>
</svg>
