<svg width="20" height="20" viewBox="0 0 20 20" fill="none" xmlns="http://www.w3.org/2000/svg">
<path d="M15.0001 9.28571L5.0001 9.28571C4.21113 9.28571 3.57153 9.92531 3.57153 10.7143L3.57153 16.4286C3.57153 17.2175 4.21113 17.8571 5.0001 17.8571L15.0001 17.8571C15.7891 17.8571 16.4287 17.2175 16.4287 16.4286V10.7143C16.4287 9.92531 15.7891 9.28571 15.0001 9.28571Z" stroke="#171A1F" stroke-width="1.71429" stroke-miterlimit="10" stroke-linecap="square"/>
<path d="M10.0001 15C10.7891 15 11.4287 14.3604 11.4287 13.5714C11.4287 12.7824 10.7891 12.1429 10.0001 12.1429C9.21113 12.1429 8.57153 12.7824 8.57153 13.5714C8.57153 14.3604 9.21113 15 10.0001 15Z" stroke="#171A1F" stroke-width="1.71429" stroke-miterlimit="10" stroke-linecap="square"/>
<path d="M13.5713 6.42857V5.71429C13.5807 4.7766 13.2172 3.87359 12.5608 3.20385C11.9045 2.53411 11.009 2.15247 10.0713 2.14286H9.9999C9.06221 2.13353 8.1592 2.497 7.48946 3.15335C6.81972 3.80969 6.43808 4.70517 6.42847 5.64286V6.42857" stroke="#171A1F" stroke-width="1.71429" stroke-miterlimit="10" stroke-linecap="square"/>
</svg>
