<svg width="12" height="12" viewBox="0 0 12 12" fill="none" xmlns="http://www.w3.org/2000/svg">
<g clip-path="url(#clip0_1_469)">
<path d="M3.42514 8.8873L4.37143 9.60001C4.58743 9.76201 4.71428 10.0157 4.71428 10.2857V10.7143H1.28571V10.2857C1.28571 10.0157 1.41257 9.76201 1.62857 9.60001L2.57486 8.8873" stroke="#15ABFF" stroke-width="1.02857" stroke-miterlimit="10"/>
<path d="M3 9C2.52643 9 2.14286 8.61643 2.14286 8.14286L2.14286 7.71429C2.14286 7.24072 2.52643 6.85715 3 6.85715C3.47357 6.85715 3.85715 7.24072 3.85715 7.71429V8.14286C3.85715 8.61643 3.47357 9 3 9Z" stroke="#15ABFF" stroke-width="1.02857" stroke-miterlimit="10" stroke-linecap="square"/>
<path d="M6.42514 3.31586L7.37143 4.02857C7.58743 4.19057 7.71428 4.44429 7.71428 4.71429V5.14286L4.28571 5.14286L4.28571 4.71429C4.28571 4.44429 4.41257 4.19057 4.62857 4.02857L5.57486 3.31586" stroke="#15ABFF" stroke-width="1.02857" stroke-miterlimit="10"/>
<path d="M6 3.42856C5.52643 3.42856 5.14286 3.04499 5.14286 2.57142V2.14285C5.14286 1.66928 5.52643 1.28571 6 1.28571C6.47357 1.28571 6.85715 1.66928 6.85715 2.14285V2.57142C6.85715 3.04499 6.47357 3.42856 6 3.42856Z" stroke="#15ABFF" stroke-width="1.02857" stroke-miterlimit="10" stroke-linecap="square"/>
<path d="M9.42514 8.8873L10.3714 9.60001C10.5874 9.76201 10.7143 10.0157 10.7143 10.2857V10.7143H7.28571L7.28571 10.2857C7.28571 10.0157 7.41257 9.76201 7.62857 9.60001L8.57486 8.8873" stroke="#15ABFF" stroke-width="1.02857" stroke-miterlimit="10"/>
<path d="M9 9C8.52643 9 8.14286 8.61643 8.14286 8.14286V7.71429C8.14286 7.24072 8.52643 6.85715 9 6.85715C9.47357 6.85715 9.85715 7.24072 9.85715 7.71429V8.14286C9.85715 8.61643 9.47357 9 9 9Z" stroke="#15ABFF" stroke-width="1.02857" stroke-miterlimit="10" stroke-linecap="square"/>
</g>
<defs>
<clipPath id="clip0_1_469">
<rect width="12" height="12" fill="white"/>
</clipPath>
</defs>
</svg>
