<svg width="28" height="28" viewBox="0 0 28 28" fill="none" xmlns="http://www.w3.org/2000/svg">
<path d="M24.999 14C24.7764 14 24.5527 13.9258 24.3672 13.7739L14 5.29199L3.63281 13.7739C3.20508 14.123 2.57617 14.0606 2.22558 13.6333C1.87597 13.2056 1.93945 12.5757 2.36718 12.2261L13.3672 3.22608C13.7344 2.92432 14.2656 2.92432 14.6328 3.22608L25.6328 12.2261C26.0605 12.5757 26.124 13.2056 25.7744 13.6333C25.5762 13.875 25.2891 14 24.999 14Z" fill="#FF56A5"/>
<path d="M25 24L23 24V15.2395L14 7.87597L5 15.2395L5 24H3C2.44727 24 2 24.4478 2 25C2 25.5522 2.44727 26 3 26L25 26C25.5527 26 26 25.5522 26 25C26 24.4478 25.5527 24 25 24ZM17 24H11L11 18C11 16.3431 12.3431 15 14 15C15.6569 15 17 16.3431 17 18L17 24Z" fill="#FF56A5"/>
</svg>
