<svg width="24" height="25" viewBox="0 0 24 25" fill="none" xmlns="http://www.w3.org/2000/svg">
<path d="M6.0001 18.5934H2.57153L2.57153 22.022H6.0001L6.0001 18.5934Z" stroke="#7367F0" stroke-width="2.05714" stroke-miterlimit="10" stroke-linecap="square"/>
<path d="M13.7142 10.8792H10.2856V14.3077H13.7142V10.8792Z" stroke="#7367F0" stroke-width="2.05714" stroke-miterlimit="10" stroke-linecap="square"/>
<path d="M6.0001 10.8792H2.57153L2.57153 14.3077H6.0001L6.0001 10.8792Z" stroke="#7367F0" stroke-width="2.05714" stroke-miterlimit="10" stroke-linecap="square"/>
<path d="M13.7142 3.16479L10.2856 3.16479V6.59337L13.7142 6.59337V3.16479Z" stroke="#7367F0" stroke-width="2.05714" stroke-miterlimit="10" stroke-linecap="square"/>
<path d="M6.0001 3.16479L2.57153 3.16479L2.57153 6.59337L6.0001 6.59337L6.0001 3.16479Z" stroke="#7367F0" stroke-width="2.05714" stroke-miterlimit="10" stroke-linecap="square"/>
<path d="M21.4286 3.16479L18 3.16479V6.59337L21.4286 6.59337V3.16479Z" stroke="#7367F0" stroke-width="2.05714" stroke-miterlimit="10" stroke-linecap="square"/>
<path d="M10.2856 20.3076H13.7142" stroke="#7367F0" stroke-width="2.05714" stroke-miterlimit="10" stroke-linecap="square"/>
<path d="M12 18.5934V22.022" stroke="#7367F0" stroke-width="2.05714" stroke-miterlimit="10" stroke-linecap="square"/>
<path d="M18 20.3076H21.4286" stroke="#7367F0" stroke-width="2.05714" stroke-miterlimit="10" stroke-linecap="square"/>
<path d="M19.7144 18.5934V22.022" stroke="#7367F0" stroke-width="2.05714" stroke-miterlimit="10" stroke-linecap="square"/>
<path d="M18 12.5934H21.4286" stroke="#7367F0" stroke-width="2.05714" stroke-miterlimit="10" stroke-linecap="square"/>
<path d="M19.7144 10.8792V14.3077" stroke="#7367F0" stroke-width="2.05714" stroke-miterlimit="10" stroke-linecap="square"/>
</svg>
