<svg width="28" height="28" viewBox="0 0 28 28" fill="none" xmlns="http://www.w3.org/2000/svg">
<path d="M23.4 10.4C24.3 9.6 24.9 8.5 25 7.3C25 6 24.6 4.7 23.6 3.8C22.8 3 21.6 2.5 20.4 2.5C19 2.5 17.7 3.1 16.9 4.2L13.1 9L11.4 7.2C9.8 5.6 7.2 5.6 5.6 7.2C4 8.8 4 11.4 5.6 13L8 15.4L3.5 21C3 21.6 2.9 22.5 3.2 23.2C3.6 23.9 4.3 24.4 5.1 24.4C5.6 24.4 6 24.2 6.4 23.9L11.9 19.5L17.6 25.2C17.8 25.4 18.1 25.5 18.3 25.5C18.5 25.5 18.8 25.4 19 25.2C19.4 24.8 19.4 24.2 19 23.8L13.5 18.3L16.8 15.6L17.6 16.4C18.4 17.2 19.5 17.6 20.5 17.6C21.6 17.6 22.6 17.2 23.4 16.4C25 14.8 25 12.2 23.4 10.6V10.4ZM18.4 7.7L19.5 6.6C19.9 6.2 20.5 6.2 20.9 6.6C21.3 7 21.3 7.6 20.9 8L19.8 9.1C19.6 9.3 19.3 9.4 19.1 9.4C18.9 9.4 18.6 9.3 18.4 9.1C18 8.7 18 8.1 18.4 7.7ZM9.2 13.9L7 11.6C6.2 10.8 6.2 9.4 7 8.6C7.8 7.8 9.2 7.8 10 8.6L11.9 10.5L9.2 13.9ZM22.1 15C21.3 15.8 19.9 15.8 19.1 15L18.5 14.4L21.8 11.7L22.1 12C23 12.8 23 14.1 22.1 15Z" fill="#171A1F"/>
</svg>
